<?xml version="1.0" encoding="UTF-8"?>
<svg id="uuid-244dd946-9d44-4560-849f-c67b8acd9c87" data-name="Layer 1" xmlns="http://www.w3.org/2000/svg" viewBox="0 0 1001 1001">
  <defs>
    <style>
      .uuid-6666c4f3-21ae-459c-86b9-164ce3b3c8a7 {
        fill: #fff;
      }
    </style>
  </defs>
  <path class="uuid-6666c4f3-21ae-459c-86b9-164ce3b3c8a7" d="M284.2572205164,139.62502437h428.9422210619c-4.1046531688-81.6310321203,58.1738979145-145.1255856257,140.7460414101-138.5350161495,89.1750443418,7.1175859121,147.6456151448,117.9820554086,87.0092345634,190.14391612-53.4437766788,63.602120239-155.0149076728,39.4384225609-146.6599123265-50.848112358,2.1429858021-23.1577343177,18.6700536716-44.3203009687,43.7313406481-33.4605987647,6.2733621955,2.718409686,17.9799964817,14.4327437213,11.8801416317,20.5255537898-4.5700891705,4.5648111302-8.8012604744,1.1419820232-13.1876787358,12.6182064764-6.5001382291,17.0063684872,2.1755725358,34.5925815943,19.4729701076,40.0813698968,35.135809238,11.1492505127,66.0580709898-22.2771239031,66.4448576855-56.0134092057.6987744652-60.9484632789-69.1912540971-97.4734679312-121.5209223004-71.2681775694-79.1481751949,39.6352773446-34.8215969333,148.7665672959-12.7685104593,211.33953356,45.3651682546,128.7181794761,119.1042502714,275.1853277291,89.4851642637,415.1896505902-19.0725723904,90.152767781-83.2828692096,157.8533806385-163.1293274503,199.4517947372,21.4591373945,15.707646876,42.6887365352,35.7070401263,55.6931136806,59.2521759053,13.4705206305,24.3891140431,19.1386976919,57.4687178382-16.6099313325,62.4064160789l-515.2654557514-.7460410866c-39.110596584-17.2923905524-11.9780196354-62.8435816571,7.451688845-85.4956460133,11.7887384891-13.7438635893,26.4454492022-24.0583189221,39.7554499227-36.1356056752-47.0832963327-21.5514219958-91.6695595506-56.2302719497-122.0672571578-98.3142801357-122.4661160213-169.5478748341,13.7442973521-396.5493906897,63.8430938759-567.9679360455,13.913897559-47.6079316328,30.9685510218-108.1168943005-11.7549749639-145.9588675976C140.5124460857-.7497573105,38.1373794657,97.2989682556,91.8792203181,163.2267898206c23.0011022006,28.2166099565,75.5342067254,25.3526623948,69.8983808071-16.8456281551-1.8426850609-13.7971187754-11.4732799963-13.6436839367-15.4048749616-24.6065575618,14.0092858688-29.8783848801,48.4754531248-19.2448502166,54.6951440116,10.3884878468,13.775048369,65.6303781945-43.305000405,115.378401936-106.2414894849,87.0776675407C26.5736084793,188.5494450196,17.7769541425,101.2980512771,63.8724519211,46.7436994924c81.598729478-96.5726807965,232.5013124206-30.43068188,220.3847685953,92.8813248776ZM344.6923788104,180.8978154h-64.8572430472c-7.3038049954,40.5819806938-21.7175398425,79.8128352489-35.3489391422,118.6870130948-49.4663127645,141.0685871281-146.1023356053,333.0733457312-34.6878882667,467.9967163148,34.7335478714,42.0624745091,83.2115106142,72.9835295364,134.8940704561,89.8952378324V180.8978154ZM439.030186879,180.8978154h-64.8572430472v685.4231367483l64.8572430472,11.7922260086V180.8978154ZM528.9459101943,180.8978154h-60.4351582939v698.689391008h60.4351582939V180.8978154ZM623.2837182629,180.8978154h-64.8572430472v697.2153627569l64.8572430472-10.3181977575V180.8978154ZM719.0955545826,180.8978154h-66.3312712982v676.5789672419c81.7815028712-24.1932587036,156.5661454236-87.9122004843,179.4129149682-172.1428229124,23.2820973022-85.8355726556-.594189676-174.8729565687-29.0341609213-256.0902564616-28.8362791055-82.3490540026-66.5963922595-162.3970136277-84.0474827487-248.3458878679Z"/>
</svg>