<?xml version="1.0" encoding="UTF-8"?>
<svg id="uuid-3de25c01-8473-48c8-9648-a910a5ba1cf4" data-name="Layer 1" xmlns="http://www.w3.org/2000/svg" viewBox="0 0 1001 1001">
  <defs>
    <style>
      .uuid-423f5e65-50a9-4d0a-8442-485e3834720b {
        fill: #fff;
      }
    </style>
  </defs>
  <g id="uuid-af70ea75-e6d4-4889-8ee1-15c2023e976f" data-name="warri">
    <path class="uuid-423f5e65-50a9-4d0a-8442-485e3834720b" d="M117.0905121835,51.7318938077c33.5991687127,35.0697929211,64.7063442204,72.6128134249,98.2043201476,107.8058614982l64.300416313-61.6595081634c9.9282451607-8.2182925749,25.3081173098.4362787511,20.8845363754,13.2485427354l-66.8195749581,66.9914863417,21.250272764,22.1447728232,2.9434172898-.346092562c17.4466409207-9.9988103404,35.4521979358-18.989873867,53.110941125-28.5928555295,52.7462831778-28.6838980947,106.4845015773-63.960964111,159.7689390032-90.1335353751,23.1360875026-11.3641229632,30.261216951-8.0099312981,51.8834608949,2.9942487238,43.2202268374,21.9960128994,85.8367681651,50.4811777672,128.3388738101,74.3881334734,28.0822567752,15.7959531337,56.4770322567,31.4253520579,85.4752261267,45.4227316202l24.9351082871-25.6996268876-66.7845425278-64.6237548491c-6.6849708667-19.1666683405,9.5242250517-24.4237509954,24.1280524612-12.6531028961,20.0733946172,16.1791054887,38.5243286178,40.5613001957,58.0246337625,56.7167483253,1.3816503724,1.1446580328,2.7053812452,2.3929216605,4.5077541125,2.8533656997L929.8517638151,9.9032973785c40.0460525931-27.8078591942,89.6549883765,18.5214526248,62.914620585,60.3645953341l-150.9552615877,151.2001445901,64.9966567011,65.0323296465c8.0505234671,8.7516901521,2.4719581401,22.904482085-9.5302254429,22.4022465704-8.2679525516-.3459753282-18.4650184361-14.9787218324-24.2539095826-20.4937059089-16.2724833186-15.5025347887-32.8084641836-30.9698266359-48.6228057437-47.0859115188l-10.3604509963,9.7724570795c-9.0990887936,91.0038284356-12.896393299,182.8838097533-24.6913825982,273.6615744957-6.5766930264,50.616196182-15.4982390903,101.3371955577-34.9181681184,148.6836497963-1.4911722594,3.6355292052-10.5037570035,19.9098422593-10.6369147755,21.2740943936-.2799743574,2.8684440178,5.9652988233,5.9764284556,8.1394882513,8.0372709284,35.9095615827,34.037489438,70.4518920781,69.9124599629,105.7591491263,104.6179312918,46.1468816128,45.3603426215,99.7995020259,90.4823738995,127.122462418,150.8302897075,7.5205544186,16.6105640959,18.3285319658,44.8112697325-12.3507306511,41.6651699275-27.2436853468-2.7937879156-89.9602816597-49.263453261-111.5683327048-68.1975962547-54.5586314102-47.8072236362-112.1127772224-107.3778337399-162.6103374619-159.9936492809-1.0039638762-1.0460778277-1.8601369629-2.3631902392-1.872014031-3.8637714878-20.294329124,24.9846989605-39.2073736017,51.1752107413-59.9344670705,75.8314169978-31.4330091527,37.3915791957-71.1830762345,83.1320446432-111.7657723734,110.0864242765-19.567904341,12.9966900284-29.3372521854,16.837181539-50.9812567701,4.2748544701-37.8128777351-21.9468507164-82.8366903526-71.4190936319-112.0032164212-104.7489297122-22.662709172-25.8976465027-43.3842716597-53.5341332105-65.0085789765-80.3209990549l-123.4846878265,124.4828101168c-30.8345737356,29.7033646198-62.7601461628,58.6514884773-99.8870674414,80.5271656549-11.276588246,6.6443161899-40.9428034821,22.929825726-53.0995291572,22.7172316556-30.2426068682-.5288758719-8.9376700744-38.1536412843-1.5084985246-51.825006849,24.5519683827-45.1812066582,61.4953340407-80.9909124276,96.7971907964-117.4049301069,43.5937089311-44.967099003,86.8339669507-89.6985639865,131.9273369458-133.0745591707-35.2754952952-71.4671128692-45.7052157143-152.2627260475-54.6466592874-230.8217103992-8.4668225126-74.3889923178-12.7292487116-149.3002144848-20.415878608-223.7619503685l-3.8752922958.8721470793-58.6761997037,60.8949957511c-11.9972290646,9.8655349976-28.162586661-3.7515166557-19.0534099643-17.7783760708l62.5595463605-63.6851427446,1.0638487384-3.6268114755L9.9271029209,72.8447638786C-16.8688501608,37.5226906752,18.9455804667-9.6475369663,60.1711755341,2.2004913762c16.9356658484,4.867225049,43.8781665025,35.9194246944,56.9193366494,49.5314024315ZM42.0225482378,26.062627253c-12.3274279224,2.0000497634-18.803033094,15.3300364649-14.5759027242,26.7200757374,3.68593351,9.9317796617,29.2252587565,32.0934851718,37.892839063,41.1504366983,26.9448522354,28.1552880912,54.3333032434,56.3125362929,81.5335369401,84.2181042352,4.0351343246,4.1397701324,21.141231604,22.6570086752,24.2694680584,24.2674883544,1.2256345139.6309815475,1.3032046677.6309831001,2.5288398834,0,1.4086042939-.7251794765,21.6845106758-21.0040165172,22.3871633119-22.4239920814l-1.4140258189-4.988544982c-26.1790101352-28.6123266014-51.2019141902-58.4750798791-77.6827910558-86.7947923659-15.6673016269-16.7552411413-36.4006819094-40.6900513297-53.5382928094-54.8377797615-6.7195890012-5.5472679895-12.2199596551-8.8005366677-21.4008348484-7.3109958345ZM822.7423000113,204.1950535578l3.136630525-1.186850258,145.9781181791-146.000527119c11.4822200032-17.5682242363-10.196804264-39.2259835295-27.4234247648-26.1473400864l-144.1588907648,146.6303400188c-.8508534866.9609380544-.5053438795,1.5466396689.0000154011,2.5288572816,3.0167866687,5.8634344193,19.225416431,17.1622032032,22.4675514244,24.175520163ZM482.2282647216,104.8107691458l-280.5019388608,153.6219144602-1.3915488966,3.8184735176c12.7220946084,108.6030907701,13.7356804916,223.1080867072,37.4942196105,329.8491110143,20.3776039502,91.5513495035,64.9482105894,150.6283268136,123.3111290813,220.9422795133,36.2014489862,43.6144565325,74.6743062922,86.8617174176,120.4446713821,120.5326292332l.6434676835-828.7644077386ZM507.7479763947,934.8372496757c19.9534337337-12.7764607808,37.0504953287-29.6207262321,53.571419083-46.5039739474,63.7408342902-65.1387483475,155.0343165375-174.0732596403,181.3578820786-261.0714985967,33.9814759378-112.3072996746,29.470951206-244.7593990549,43.1009752956-361.1790439348l-.7209252879-5.7346908215c-93.6920497156-49.2394194494-185.997192082-101.8124742045-277.3093176321-155.5433368807l-.0000335374,830.0325441811ZM215.2960200231,196.698751712l-27.002732919,26.6595156162c.4906068331,4.7568561034,5.8646397197,9.6656280151,10.8823894141,8.4122520104,2.088099302-.5215831239,31.4708397574-16.1969657062,31.886543985-17.979441543l-15.7662004802-17.0923260835ZM760.1953816647,218.2578765692l31.228778379,16.2196504388,13.2986720164-13.1832005473-23.497394381-24.6659234117c-5.6944288891,6.8347709362-13.5675998009,12.4358529613-19.6822478288,18.5448527382-1.0491288456,1.0481597395-1.8250448491,1.1355159065-1.3478081857,3.084620782ZM961.6332223616,967.9814243735c1.4778693257-1.4772107643-18.6765457787-32.1131710806-21.1417986651-35.5832565781-43.4511109457-61.1617050617-107.6300981414-110.6604532882-158.6339277128-165.219278891l-52.2826722921-48.489190343c-6.7099604469,8.9735249283-11.458774044,20.423190733-19.1078924521,28.0769095447l165.7291795067,164.5010268032c26.0186529766,22.1626887117,53.2684257232,44.1777137384,85.4371116154,56.7137894641ZM254.746068138,777.47049116c8.1769988387-8.5780186526,16.2251593125-17.3263229754,24.5553353884-25.7782386533l-17.0419928702-28.4708268323-3.1839525077-.7169571777c-47.663630332,49.9698312578-99.2333445992,96.442649335-146.6277774848,146.6363468487-28.8429297836,30.5464841506-56.3648198033,62.9971719565-76.4666683589,100.1095735664,34.5251566534-16.389243769,66.9946154855-41.5834745865,95.021624482-67.5294785746,41.4949172503-38.413920251,84.6161898377-83.2042830398,123.7434313511-124.2504191772Z"/>
  </g>
</svg>