<?xml version="1.0" encoding="UTF-8"?>
<svg id="uuid-4b955cda-2d04-4252-93a2-b39a47b6fea6" data-name="Layer 1" xmlns="http://www.w3.org/2000/svg" viewBox="0 0 1001 1001">
  <defs>
    <style>
      .uuid-10ac5ed5-28cd-4387-a46b-1c173daebd57 {
        fill: #fff;
      }
    </style>
  </defs>
  <path class="uuid-10ac5ed5-28cd-4387-a46b-1c173daebd57" d="M660.1851645998,126.1193672931c15.4232829739,14.6275564339,26.5957336724,36.0358330083,1.5945675365,48.5156132869-17.7002461986,8.8353952066-65.1684697687,12.0624473231-86.4993748444,14.0925911965-8.5926790844.8177981543-18.6087386563.2234946823-27.3374225897,1.4385591497-1.9918043556.2772663917-2.4286417091-.7965802296-2.1608660066,2.1776457554,34.5323645908,124.065787087,75.0955721331,246.3017216442,113.4047646532,369.1922970692l46.5864167857,12.1124574311,48.4188892587-47.943483379c.5080911284-2.8222834911-.4356140167-1.7576636817-1.8015559026-2.4416609106-12.4148992217-6.2167774134-42.4997385748-12.3187743976-36.6858315011-31.7370119119,2.681117231-8.9548337349,43.8601695323-26.0750337652,52.1584059014-34.0535133657l4.2042200559-57.5879867981c2.2104686315-9.3030674327,14.0099111879-14.8133684649,22.3106745615-9.1731994427l45.2841054149,40.3283716829c14.9753588668-1.5588430945,47.9291533145-18.7190082585,61.199500517-14.599147393,4.4531320774,1.3825022281,8.6958994921,7.8144733899,9.4110142642,12.2584326735,1.9536896,12.1408721704-19.0995451622,43.483633239-22.2738155727,56.8212743651.1978672542,8.3882583071,24.8102292439,36.4041662948,28.9032666333,47.0651138247,3.099209285,8.0723688615.0733502541,13.8492932033-5.4869794366,19.5730344179-19.791395087,4.535288836-42.3720881236-2.2436103063-62.8015909609-2.5450303265l-35.9958371392,42.4265750405c-26.375143246,16.3874645975-30.5679857191-29.1307325403-35.2455602013-46.39691357-.5252323114-1.9387732266.9822863144-4.0252183936-2.3106761535-3.3800243263-11.8078153376,12.7323289539-23.4939227068,26.0052822419-35.7305418897,38.2837436203-111.8767882983,112.2593425303-224.0623059491,224.5801390507-337.2317117704,336.0158276909-13.3412102301,16.0257462253-1.7495289763,32.3020163693,17.2947315824,17.2948111805,43.8344970417-34.5423383294,84.4591262539-91.3424909887,127.8407411056-127.9502173116,31.0771242355-30.213476888,61.0249127284-61.691818826,91.914505256-91.9845554557,6.1966930818-6.0769591354,13.2889904911-11.7859093443,19.5334177578-17.8695600497,12.1485591881-11.8357677203,39.9724169468-44.4435453565,51.903633294-51.5579378836,16.5125709334-9.8461806268,28.3591246082,9.0014154293,14.2223269648,25.7088941312-17.8530186304,21.0994693463-47.5533056977,44.6024897429-67.8193452574,65.1106719028-3.4044616851,3.4451388585-7.0107089014,8.7649439949-10.5619887164,12.4157480309,48.5866659025-9.7138511033,110.1518467255-21.8903853332,151.3543050598-50.5334292453,42.093469872-29.2624555597,17.9881700271-52.5842193105-17.4062875473-69.7484527865-8.653893788-4.1966303098-32.6466654455-9.2559065709-31.6472695892-20.8864629544,2.1410318219-24.9164444374,33.4308923911-8.7846885339,46.1771386253-2.265574632,78.8937640169,40.3505019697,63.2410480903,95.3308159043-8.7800022921,130.1030246878-54.6555762204,26.3880504023-117.2801528128,35.6400818965-176.0344366568,47.7705570086-14.2433435662,16.9412153669-31.3857092683,31.3813462485-47.100060083,46.7182751148-40.3685922297,39.3990330721-84.1624501586,91.2909204674-126.5514185191,126.2579783365-7.7092509691,6.3594334845-12.958217923,11.4582972533-23.541637211,12.4425752772-26.3570091387,2.451251733-47.1799391642-20.4176694914-43.6943598476-46.5595930816,2.5214085184-18.910620829,37.6633671544-47.6985089231,51.672353892-61.8527694707,77.6582220198-78.4635412054,156.4595619225-156.0233541922,233.4705280741-235.0070981631,8.3902966606-8.6052295718,19.5929310325-16.5486424961,26.591543263-26.5716564135.8532781247-1.2220163423,1.9913057783-1.4313984848,1.4128339584-3.604508971-4.7474471852.1606122161-12.3127429936-4.3835325531-16.5892865491-3.7432607527-1.0382302042.1554408399-7.2204319234,6.6018845279-11.1411627003,8.3334076136-19.2579293438,8.5049321515-54.2983441162,16.7432557027-75.4031413124,20.8776476794-104.6711529522,20.5048914208-231.4484344743,17.5531829714-335.4541129932-5.7818104634-13.1243527414-2.9446150385-40.2087233586-9.1128887233-51.4450832723-14.6581450891-5.5878582348-2.7576641088-5.788709303-6.5274118682-10.4745177428-9.1343820399-38.0981611571,11.6723830623-80.2062622069,20.10095221-116.0401027855,37.8017180903-17.1792478738,8.4859964688-50.0229082225,29.0791058178-34.4369022485,51.8105462634,20.9937105127,30.6183175502,106.362936094,54.9631043822,142.2588395372,63.2361810473,90.2513048255,20.8005898256,179.1968689148,25.9853639113,270.841181631,25.0666592919,7.5450507874-.0756366959,21.948675138-1.1146563074,28.4966766465.3638359936,13.4871433036,3.0453013047,15.2447499269,25.296532505.3290835812,27.0279640561-30.2081434606,3.5066038267-66.8808133886-2.7182955969-97.8039367648.0325077974l-80.3971803069-5.8245051958c-70.3714625695-8.8218721949-141.6282890071-19.1940520807-208.0227562863-44.894187855-26.2496683251-10.1607869998-73.539783105-32.0298834442-83.4171308154-60.285680069-25.4492597355-72.8018419945,110.1927527828-103.5131915988,157.8912429532-115.993237308,5.2513209629-1.3739790382,22.8889959275-3.6958624097,24.9444564488-6.6701615688,25.0303789088-78.0787689105,48.1878271479-156.8573548149,74.4270250662-234.5340146517,16.5346224712-48.9479232264,34.2583465845-100.831967158,54.2983618599-148.3225990715,28.1008084763-66.5930206879,72.2818494759-150.6850178342,156.6750705204-145.2186060823,52.5427806213,3.4033595342,149.9651319465,56.2806020747,188.2980608066,92.6358372816ZM613.3798474089,510.6296619951c-6.3822209849-28.0838127033-16.8957249748-55.4587302821-25.4558890529-83.0381180892-25.1094888654-80.8984880127-49.323547134-162.149307343-72.2145114636-243.7060606497.5766763224-8.6692801019,10.1398727449-17.6226907157,18.2296507256-19.2548336737,17.6420532615-3.5593502151,41.4402101938-2.644482943,60.0254698585-4.6407942693,11.7628935618-1.2634958064,25.3709492704-2.820935869,36.9783835264-4.6954311829,5.2482870588-.8475507403,12.4195276395-1.7857901993,16.8922963058-4.6343865804-.1867123764-5.2469222047-52.6232953483-38.4019353683-60.4462483606-42.9907986879-39.016506383-22.8866790734-105.2635191324-58.4064268351-150.729003311-43.1917474447-54.3623203203,18.1919381161-91.0189080369,110.1552715371-110.3313553179,159.829925924-36.4209049315,93.6803005132-63.9206746855,190.8516239633-95.2003580082,286.3201695104,35.611123088,4.6766994283,71.1812011367,10.3823564222,107.0708917914,12.9267354944,87.958262128,6.2357506376,180.8662423963,3.5701650712,267.4247801055-12.7699255188,2.534338612-.4784198486,5.2112883891-.0436283321,7.7558932009-.1547348324ZM877.7882972983,445.9838207522c-14.3326060671,1.3208320089-38.2582079469,17.4852620155-51.0173254836,8.6119067467-10.7417581999-7.4703784525-19.436036559-20.3073470847-30.8785786682-27.3072621841-1.7869798868,11.0010100414.7681682164,39.7271262078-5.6833819924,47.8390733235-4.1466241322,5.2138159947-29.1580688953,15.4518807037-35.9980318861,20.4124041364,1.5811720196,3.2966874435,30.4028430557,13.4852985804,35.4919853734,16.2411850965,11.0874804979,6.004123307,12.7467832293,31.1497959468,16.3641848043,42.5537755408.5068932987,1.5979980973.494158204,3.4680111816,2.7241548844,3.7202443018-.0750955804-1.7944043303,1.1106786711-3.0370031925,2.1399872873-4.3282584247,3.7862009889-4.7497434301,21.0305118764-27.3719086656,24.1165375996-29.0618350855,9.1792076733-5.0265898448,35.8754016066,3.1210219468,47.0444024228,3.2076817038,3.0866436821-3.0013031115-31.1024417811-37.462056349-21.88169469-47.0409766888l17.5777603485-34.8479384664ZM634.8126162889,576.5897456145l-13.7162253742-41.4027006381c-21.368185763,4.2694287115-43.0060046593,8.5846985631-64.667066058,11.1908547719-99.4700740843,11.9677677095-206.493658732,9.4519595037-305.5081536793-5.9599505644-8.7226070605-1.3577005634-17.5696158586-3.362845594-26.1649660978-5.3889408259l-13.8460491962,42.2651956915c17.8473041999,5.021667765,36.1685031313,9.8903553399,54.4076779236,13.3933462255,88.560377576,17.0087846082,185.8486696712,19.9895393271,275.2492510067,7.3684297408,31.8913465057-4.502254606,63.6491286828-11.6152121428,94.2455314752-21.4662344014Z"/>
  <path class="uuid-10ac5ed5-28cd-4387-a46b-1c173daebd57" d="M850.1331035292,288.1477734912c3.6264304571-.5989290504,7.7294975561.9020245158,10.4978653642,3.2541108148,8.2976646019,7.0499386557,2.1979160488,19.7309458583,1.372533812,28.8497953685-.7184897217,7.9378975642-.2375208271,21.6479708752-1.7622495652,28.4153526744-3.1257338872,13.8733101095-23.6914125903,12.9827712644-24.1685907793-2.5293089707,3.6629571005-10.960841841-.1113230722-47.5156124697,7.2979524247-54.5779138804,1.0786817565-1.0281674225,5.3111186654-3.1723326087,6.7624887437-3.4120360066Z"/>
  <path class="uuid-10ac5ed5-28cd-4387-a46b-1c173daebd57" d="M729.2718107618,345.8803050745c5.9655804733,5.3952149358,16.6799875836,15.9392472025,22.0426490543,21.7866581172,9.4385801693,10.2917659457,4.3143203085,27.4249045602-10.1091860167,23.0353109247-4.6238471218-1.4072035911-36.1365259596-31.7129285844-38.3999254534-36.3084216404-3.1553648127-6.4064947996-1.8585610759-14.4000976144,5.0832510337-17.2690038084,9.2224405138-3.8114423578,15.1073156552,3.079595271,21.3832113821,8.7554564069Z"/>
  <path class="uuid-10ac5ed5-28cd-4387-a46b-1c173daebd57" d="M970.8667331927,370.0586655122c10.9162331448-1.4141180726,17.7242733585,11.40892026,11.0245919395,19.7846426723-6.7111808831,8.390098666-30.5921971195,17.261501026-39.511019177,25.1414524121-10.9235277923,5.1214083047-21.5696546024-9.1472337722-15.82774812-18.6958622661,1.9880273496-3.3060333976,39.8755360827-25.655239601,44.3141753575-26.2302328183Z"/>
  <path class="uuid-10ac5ed5-28cd-4387-a46b-1c173daebd57" d="M947.6812929797,515.4023502166c4.3485422424-.277536608,20.1197954532,6.4697080969,25.336626668,8.4996432328,6.0538065183,2.355612833,24.493810947,8.5824465335,26.2797019665,13.9463807941,3.8588254656,11.5900051541-1.7614719652,19.4307198487-14.1175459237,16.9887825586-3.6183879841-.7151038896-39.9411533203-15.7360782139-42.669909913-17.67185189-9.5320484539-6.7620133382-5.8742994429-21.0580034557,5.1711272022-21.7629546955Z"/>
</svg>