<?xml version="1.0" encoding="UTF-8"?>
<svg id="uuid-1638695f-fd31-41c5-b449-19cd01de76b5" data-name="Layer 1" xmlns="http://www.w3.org/2000/svg" viewBox="0 0 1001 1001">
  <defs>
    <style>
      .uuid-e2b5dcef-46df-4bd5-8693-9d44fff532ca {
        fill: #fff;
      }
    </style>
  </defs>
  <g id="uuid-c4f095f7-116e-4a8b-bbaa-3790c0958532" data-name="priester">
    <g>
      <path class="uuid-e2b5dcef-46df-4bd5-8693-9d44fff532ca" d="M489.1106737545,419.9595792307c-87.1351083609-6.6205936365-151.5405486409-84.2582808438-139.9322034808-171.6424463345,20.4671152584-154.0703487172,237.5852372534-178.4229492413,293.7348021869-36.6305237313,38.0530871033,96.09405745-21.7629808639,189.6526375237-119.8113026118,208.1597706597-3.0122190384.5685720855-8.8155053296-1.1919580102-9.8882307301,2.0830319399l-.7040906872,569.1280218014c-4.3983064424,9.6054753328-18.5276184949,9.5414125741-22.8701533346,0l-.5288213424-571.0978543352ZM596.1083677907,183.683163223c-84.3719992448-93.2201298491-232.4356099493-25.6507326517-223.1109422425,100.3934592489,4.389075596,59.3283861778,59.3599164087,107.4737448455,117.2331604062,111.9405235111,6.410589703-52.4617005145,66.5799028684-56.6849925495,61.1028105934-114.299063877-5.5690184006-58.5810512666-101.9011060478-71.992212816-115.7979675677.2829377942-1.3166085906,6.8474514225,1.9995830172,13.8975125615-7.4519734568,16.5298835108-11.8549917919,3.3017562856-17.1740522385-7.9083794468-16.7881714116-18.0045572373,1.370689648-35.8626949544,32.0619949222-66.1172924499,66.579848779-71.1102361579,83.8080555393-12.1226802027,130.4222510225,80.0938083261,72.8953170307,141.1315222917-13.3578510709,14.1730601005-32.3281504125,23.3690290003-35.3238393755,45.4698306636,51.8891169555-6.0034697859,98.5435180552-44.3838121035,110.7407837845-95.7511443092,10.1891218304-42.9102732988-.8576036788-84.2972684403-30.0790265396-116.5831554389Z"/>
      <path class="uuid-e2b5dcef-46df-4bd5-8693-9d44fff532ca" d="M364.2288199891,388.0123985643c10.5314923302,11.9127455962-6.1597398911,22.1182608063-12.7899073904,28.9657276559-10.2950710964,10.6324852358-25.7940628497,29.9527540143-37.0920492897,38.3276201174-11.6898823097,8.6653670213-26.8506174483-3.9398797695-19.1828757643-15.5952431042,6.090056633-9.2572005829,28.5543416658-28.5436593589,37.7595627471-37.6573722751,7.0756291913-7.0052910823,20.1412004095-26.6690203017,31.3052696973-14.0407323939Z"/>
      <path class="uuid-e2b5dcef-46df-4bd5-8693-9d44fff532ca" d="M643.2521350844,384.2833654543c3.6508846263-.5332060295,7.0832636526.3212837626,9.9053644548,2.7126638717l51.436515472,51.5180625159c7.8030804166,13.0786503687-4.098810166,25.2244256544-17.3734917054,17.3734917054-13.9337076048-15.8718636936-32.668031828-30.0898158088-46.0501895591-46.129327266-4.6069039282-5.5217170372-8.3233070899-8.9240110157-7.2841021774-16.7847508769.5835206728-4.4138592469,4.9465718226-8.0447034201,9.365903515-8.6901399501Z"/>
      <path class="uuid-e2b5dcef-46df-4bd5-8693-9d44fff532ca" d="M348.253982091,145.3873828185l-52.4334103148-52.2911328491c-6.9970331141-14.9152660863,6.4418863861-24.256890196,19.5981884907-14.8091333656,16.7769822747,12.0478267843,33.1372596562,36.1664222212,49.7288219308,49.6339871392,7.2698491347,11.5968522585-5.4241463301,25.0105053418-16.8936001066,17.4662790755Z"/>
      <path class="uuid-e2b5dcef-46df-4bd5-8693-9d44fff532ca" d="M658.6746424345,140.6150499221c-5.8924283948,5.4456466439-15.2725743341,10.5796147584-21.7986159461,2.8867805207-7.8795591089-9.2883474692.7562856902-18.0308054005,7.0753904094-24.7930318278,8.9427789245-9.5698834983,32.6043036388-34.3485713645,42.0855524561-41.1154393103,12.2395399045-8.7354895801,25.7123705293,2.953438083,19.5923198202,14.8081984206-16.4352778177,15.0437479758-30.6606810836,33.1549843209-46.9546467395,48.2134921967Z"/>
      <path class="uuid-e2b5dcef-46df-4bd5-8693-9d44fff532ca" d="M694.6627633698,253.817565446c22.9115422577,1.4229611253,50.2436165431-2.8431733667,72.6342760197-.1141720356,16.6023648246,2.0235168041,14.1812426582,21.885108512,2.4641514568,23.7361714457-22.4468299909-2.0458836297-50.1726730828,2.8752715103-71.902706907.3147699693-15.2472272239-1.7966170287-17.1350596435-18.2486789541-3.1957205694-23.9367693793Z"/>
      <path class="uuid-e2b5dcef-46df-4bd5-8693-9d44fff532ca" d="M232.6067512496,253.8522928237c20.9642280246-3.5092693159,49.6762891272,1.9723834709,71.4830662386-.2295437265,12.4205082975,3.6109216321,12.4689684869,20.5310660844-.0107445033,23.8168157583-21.8575095323-2.3559458253-51.7944181759,3.5193839317-72.6700770721-.2181694794-12.1468436926-2.1747566054-13.7387433098-20.8688341749,1.1977553368-23.3691025523Z"/>
      <path class="uuid-e2b5dcef-46df-4bd5-8693-9d44fff532ca" d="M490.6523387015,7.2959086451c6.3211238484-7.7431499053,20.2561148476-5.2622799491,22.3253213644,5.116586883-2.157733124,21.1283866217,3.1619314233,48.9976404786-.0025847217,69.2943919558-1.8153064137,11.6431142852-21.4402264014,12.0442874683-23.8010071598,0,1.3021323507-22.0482778007-1.9768914375-46.4633313289-.1188918104-68.2165858866.1874711646-2.1948917027.1097349679-4.3723478072,1.5971623275-6.1943929522Z"/>
    </g>
  </g>
</svg>