<?xml version="1.0" encoding="UTF-8"?>
<svg id="uuid-35177626-b1b5-45d6-a3ef-edfc3bc51f92" data-name="Layer 1" xmlns="http://www.w3.org/2000/svg" viewBox="0 0 1001 1001">
  <defs>
    <style>
      .uuid-eab39f49-1510-4fa3-bbcd-d1022ceaa3ac {
        fill: #fff;
      }
    </style>
  </defs>
  <g id="uuid-66f3ad31-9556-4871-8480-0f7550c30a2f" data-name="waldi">
    <path class="uuid-eab39f49-1510-4fa3-bbcd-d1022ceaa3ac" d="M997.5153380947,944.6072925578c-19.4960802016-20.4592039445-39.0089034484-39.5147825998-53.132858005-64.3339552427-44.2502738834-77.7068646289-16.9327997106-172.9999063751-13.4055981888-257.417941621,4.5883916722-109.2049177302-28.8363075587-222.9978284887-145.486698031-254.1363047621-34.8287231639-9.2907955093-75.0618621315-9.454239522-102.4120251069-36.2164026957l154.1408591788-152.5080136281c-.3595768278,17.0962437232-20.7047686074,49.2141881407-19.888345832,64.1872542752.9635223868,17.9126664986,23.7416380912,31.1384762734,34.2080345598,7.2337928135,16.6389991317-38.0290366604,22.8434933095-87.6841249914,39.8743594276-126.6109077896,4.2451592456-15.0224979822-6.6457930119-22.5496927306-21.22699216-19.4960802016-9.1931277457,1.9429905309-28.5911415397,12.196909783-39.4824924412,15.9852230811-27.0073291927,9.3888619169-57.2149718819,16.2794223039-83.2751230892,26.0111180034-22.386248718,8.3440161678-21.2596809625,32.3631104365,1.7472563596,36.0047227671l72.531270443-22.0928467831-150.8915124786,150.858823676c-28.5257639346-46.2749864206-23.3334267035-101.5138803252-50.0629010747-148.8990901-50.1609674823-88.8920161093-165.6034668367-110.592597262-259.8512641898-103.8981696902-126.757608757,9.0133393318-190.6183736509,48.2179769514-297.0961682334-47.9237777287-3.3801019104-3.053612529-5.4048144476-7.445871386-10.8746078563-9.5359615283-10.1076169286-3.8369478579-22.3049253556.8818003804-24.9662722543,11.772752638-3.053612529,12.6055198147,23.4964720722,39.220982021,32.8040106267,47.2707989659,6.4169713942,5.551914059,23.3984056646,15.0711325421,25.798640787,21.5048469815l125.0597842451,675.0672244336-96.2234766864,9.0133393318c-33.5550557971,31.7097330299-65.1017434582,65.3791996358-96.2892529354,99.4728233867-2.6613468987,2.9065129176-6.5640710056,4.5066696659-9.7316956995,8.1969165564-9.1600402992,10.6788736851-10.61349608,25.2927616356,3.6902468905,32.1179444175,11.5770184668,5.5355696577,65.0363658531,10.3850731062,67.6654225932,13.0795074513,8.719140109,19.8879471881,7.9190617349,53.491637545,17.0631562767,71.8452042338,3.1185914902,6.2698717828,9.633629292,9.9437742721,16.5568784815,9.2581067068,12.5237978083-1.2409785643,41.6702503471-35.3836355191,52.3654684334-45.6383520591,22.4025931193-21.4881039363,45.5398870076-42.5189632811,66.8322567726-65.2811332282,6.1722040192-32.754578779,2.9392017202-67.2895013641,7.4131825835-100.3055905634.3264893814-2.4656127274-.914489183-2.5796248923,2.4492683261-2.4002351224,199.6480573839,37.7842692854,398.4306587886,79.6992870075,597.4907163709,120.291604159,12.8016526298,2.6127123388,86.5898473945,14.6629211544,90.9330730477,18.3535666888,11.8548732883,10.0581850809,22.1255355856,29.9951654728,37.0986017201,39.5797615609,16.9160566654,10.8259732964,34.1753457573-2.2367911097,28.5747971384-20.4105693846ZM91.3514350236,884.4535175996l-37.9636590554-4.6864580798c-.8654559792-1.1756009593,18.7936695912-19.9369803918,20.8187807723-20.7534031672,11.2501304415-4.5557028697,33.1954789692-1.0448457492,46.0625092041-3.6739024892l-28.9176309211,29.1137637363ZM142.3778584851,928.8178036479l-20.4596025884,21.1129799951-5.6986150264-41.0009271831,30.1259206829-32.3957992391-3.9677030681,52.2837464271ZM156.2403026214,820.3316409295l-52.2833477832,3.9840474693,25.6355954183-25.7336618259,54.292114563-5.2250260337c-10.4827408699,7.7887051687-17.569434072,19.2022796228-27.6443621981,26.9746403902ZM201.1112651089,870.1007414254l-23.7252936899,24.3619280514,4.7514370409-53.132858005,22.9415597171-23.5291608748-3.9677030681,52.3000908284ZM682.1963583826,374.1402497809c64.0074658613,40.7230723616,129.255910287,10.6461848825,179.3518988082,91.439350843,69.1834586912,111.6214972538,8.5070615365,226.5082869652,23.9864054662,343.0446652726,1.8776129258,14.1076101553,5.5028808552,27.8237519681,7.9354061361,41.8006069133l-365.3814821429-362.1652228891,131.5257888431-131.9826347907c7.9354061361,5.5351710138,14.3523775303,12.6382086172,22.5819828892,17.8632346509ZM165.9233637611,105.7819240546c122.4634163076,25.8807614372,261.7942547207-60.5129531421,381.6286142882,29.4402531176,63.7790428875,47.8587987675,50.5528344687,93.3496525713,75.5354511243,157.749384063,5.9437810454,15.3649331209,14.6629211544,29.6196428876,22.206858948,44.1844976344l-132.7013898024,133.1586343939c-13.2262084188-14.2873985692-27.8564407706-27.6112747517-41.6375615446-41.5231507357-106.6085497927-107.6697399431-217.3155578635-213.4128337566-322.3729841117-322.7971412567-1.4530571369-1.5020903406-2.1064345435-3.7883132981-3.8369478579-5.1433040273,6.4333157955.1957341712,14.091265754,3.4287364703,21.1779589562,4.9308268109ZM244.2509169942,736.2400950649L128.4496380998,111.4645933237l371.8478853848,372.5989305552c-1.2246341631,2.4819571287-4.0821138769,3.0695582864-5.8620590391,4.8495034485-50.7976018438,50.4384236599-100.8118683587,100.6647687473-151.52814684,151.0055246435-27.6112747517,27.4155405804-64.6118100642,71.4206484448-93.757863959,93.8886191692-1.6328455508,1.2573229656-2.073745741,3.1512802927-4.8985366523,2.4329239249ZM260.5630281006,755.8015528716l255.2792169189-254.5277731046,3.3474131079,1.6001567482c68.7752473035,69.1180810861,137.8937270336,137.9100714348,206.848762751,206.6853187383,57.9987058548,57.8516062434,115.9320341045,115.7526443345,173.9630301179,173.4734953678l-639.4384228956-127.2311977498Z"/>
  </g>
</svg>