<?xml version="1.0" encoding="UTF-8"?>
<svg id="uuid-0fe20655-7ab1-46f7-bb91-5ca270818245" data-name="Layer 1" xmlns="http://www.w3.org/2000/svg" viewBox="0 0 1001 1001">
  <defs>
    <style>
      .uuid-05e1968c-8b48-4854-a5ff-7e7bef2db0ee {
        fill: #fff;
      }
    </style>
  </defs>
  <g id="uuid-e12b2de8-4472-44b8-97c8-094c9df67145" data-name="dieb">
    <g>
      <path class="uuid-05e1968c-8b48-4854-a5ff-7e7bef2db0ee" d="M795.1672971421,293.2913722712c-1.1864503724,6.7949487324-4.0103201091,13.7528025671-9.1151868476,18.5942429506l56.7256085603,56.8335890286c7.2416914833,9.6108409372,38.7113895799,33.5688327045,39.7719746417,44.1438376067,1.0491870033,10.461355816-12.9014027372,20.3143207509-22.1263455648,15.6678659021l-72.4468328113-72.1370041399-3.2314115301-1.2548775071-147.1850047662,149.7225435714c44.2564510069-5.7023401407,86.8766606971,2.9747182179,128.7932868889,16.4444884497,79.7213708574,25.6182008328,105.0437689365,47.4396325142,193.9422173543,22.9538250751,9.3742872258-2.5820134769,15.210328963-7.7853920746,26.157766696-5.5225122164,19.4289370881,4.0160402347,7.7624453395,30.0497462303,3.5426357693,41.6773657559-35.5545924519,97.9701255571-117.2543884125,227.4081963905-216.9337587217,268.4409497236-83.6788450185,34.4461787448-164.5612670286,11.1077703474-239.1619164325-31.8429540832-30.4113447951-17.5090873913-76.9874525212-55.5678999811-110.1393828286-60.2579997042-9.9310149317-1.4049694829-35.2087264843-1.2508492133-43.1399545884,4.3097829166-12.7644642071,8.9492432774-31.9006154431,32.1022433443-45.1114976425,43.959919611-59.3747766024,53.2929496106-143.3465879415,115.9407642227-212.620903832,155.2828033467-10.5577077529,5.9958982797-27.0439466829,17.8659574287-37.218604654,5.4494299443-3.8861596891-4.7424305294-4.1569275081-9.6036473165-2.4895917456-15.472104765l123.2217594257-193.6735104582c-98.2697937664-21.1063814157-153.493499391-104.5563083514-179.0662945132-195.9499481058C12.8241854522,508.7983835005,3.0350401827,448.4383945193,1.0977034323,394.5566246309c-.344382873-9.5780760427-1.2217183662-27.3157696382.1359547316-36.1154671102.9475829292-6.1417163825,6.1445698672-11.3108975817,12.2604322632-12.2589871526,11.9179139266-1.8475317411,26.2103737862,10.6614163043,36.682997722,16.0766418974,90.2812717468,46.6829952402,156.0670590495,17.9093049085,248.142526198,35.8533138536,62.2958625846,12.1404490259,115.3659890349,44.9882953749,156.5792843962,92.5382538577l234.2031548592-233.1585485237-76.0631485214-74.7013614737c-11.7278045305-15.6036087083,7.4355399091-31.7393097311,22.597177-21.297126433l97.483416246,93.6642555633,12.6646507175-4.7931382322c-.0608061367-39.6364445567,23.6439416054-73.5250901585,46.7367502923-103.6577336474,32.3436714353-42.203628571,100.3190072408-116.1397182261,156.8374947702-116.9055908209,34.835965826-.4720563607,54.7084935047,31.1813130851,50.6103637936,63.5932774878-8.7277614695,69.0275598884-127.9092827408,184.2567060833-194.526584899,199.1913945558-3.5095642494.7867963283-6.7668193398.5065012231-10.2748758596.7055638183ZM906.5167879134,186.4764304912c21.8687112644-22.1605219653,44.6910930284-46.1758564194,56.5703130783-75.7459307365,11.3620222015-28.2826515106,9.2782022001-58.2493176529-29.4591162088-47.5315147625-50.0525754256,13.8484969947-148.6878986255,124.8235351703-155.253480788,176.5028265346-1.2008750039,9.4523787353.5291768217,25.5870317728,13.2451200015,24.9829347365,35.1610985617-1.6704003103,90.6571209961-53.6448196844,114.8971639169-78.2083157721ZM751.9526405012,346.9025210128c1.9507750774-2.1099201628,10.9983460775-11.3724519922,11.5458025384-12.4362363852.511776634-.9944535042.861351681-1.5874968778-.0000167688-2.5603565935l-53.6252120401-52.9377770112c-.041125466,1.4735263008-.8385754185,2.9297131323-1.856387527,3.9500298811-68.8914909079,69.0610196509-138.5357766809,137.8933020471-208.6491034,205.7443971763-10.0635247231,9.7388214948-24.466117912,27.8671577946-35.4223280996,35.5865344043-8.8365253816,6.2259181026-15.0832327761,3.1208121542-22.6138331071-3.2255764764-18.8586815723-15.8930917931-33.6298070759-37.3920756089-55.0680795071-53.3666759215-78.2406618895-58.3005606396-149.0542310651-41.9161017711-238.6496865116-46.637043722-41.0329046215-2.1620958321-81.5777869982-15.5465000095-116.7601594438-36.1971251855,2.3588992944,7.3492763341.7775807108,15.0680610671,1.2254357523,22.6428303573,5.2324406635,88.4985702448,28.206374651,215.6571672408,96.8517584824,277.5063946274,65.6222223737,59.1253705155,154.0935371468,57.3696692601,236.6202566256,45.5320117715,64.2610929439-63.6528208937,128.3587135602-127.2073978527,192.5853894277-190.8089946419,63.9220469924-63.2999326812,132.8768883111-126.8816842418,193.8161635787-192.7924122805ZM960.2696794257,573.2921679115c-1.8694531767.7457074142-2.9095846012,2.426687325-5.0012802442,3.1239147381-106.4588291888,35.486048998-179.0290359844-39.3850018771-278.3494011938-44.4199523387-19.5764112015-.9924073518-68.073459102,1.9827956321-83.3027658487,13.4880840117l-178.0836905411,179.4667280299c1.2182406413,1.9870549215,2.5831513777,1.7053239989,4.4903093036,1.9786143245,55.4968022264,7.9525344741,92.6914729848,45.3650378889,140.5065165235,71.1994797572,98.8325267515,53.3991601408,186.9661940721,54.1416986542,271.9728992008-24.0859090814,57.7887040506-53.1801822595,97.9530782186-128.9060237337,127.7674128-200.7509594413ZM336.7820724665,763.0654020846c-33.1794036385,3.928216835-66.8265123623,2.9479177595-100.0917952048,1.1450927853l-94.8195937881,151.1666018421c66.4847942932-48.675781473,136.2329146164-94.0150069639,194.911388993-152.3116946274Z"/>
      <path class="uuid-05e1968c-8b48-4854-a5ff-7e7bef2db0ee" d="M206.131774173,502.6771461371c50.5889788409-1.8356755718,100.4663718233,13.5156447522,133.2037155001,53.216192692,9.9749241616,12.0965817748,32.0054780707,46.5086701964,30.9553094308,61.7788929659-.6487948562,9.4339533759-14.6097510622,15.7469964136-22.311369429,19.0975175792-83.8761628667,36.4895851222-168.0705149496-4.5242205813-202.4730146818-85.8444227117-4.5828220029-10.832817804-11.8003803097-24.4517211762-1.128571305-33.8494231274,9.9924819405-8.799479731,48.1084706518-13.9036171944,61.7539304849-14.398757398ZM336.7823631332,609.4197813505c-24.6815221238-67.0800004013-100.302279128-89.2201878199-165.2324660467-72.2592360756,12.2595937439,24.9216148659,26.130804528,48.8468361877,49.9423518901,64.2861840558,35.4352821725,22.9761485025,76.7037266018,22.9412704059,115.2901141566,7.9730520199Z"/>
      <path class="uuid-05e1968c-8b48-4854-a5ff-7e7bef2db0ee" d="M661.8313243972,602.0585039898c38.2613013448-.8849319013,99.9816553569,18.7157570691,128.0654526966,45.4474314934,14.9199266309,14.2015916262,4.965610155,22.9996750927-6.4328851061,34.8994412225-65.4164163428,68.2932297376-160.0567148841,72.37206608-223.3918818653-1.2899896543-11.1267674072-12.941002605-15.0139353196-19.1362060358-1.9546786835-33.0048224626,24.5089800746-26.0279473125,68.0457905231-45.2271035513,103.7139929583-46.052060599ZM586.3314731643,661.4586070115c-3.2883485613,3.7018338327,6.7730945315,11.7062377954,9.9016590777,14.4770130473,26.4176635892,23.3964834049,60.7367842711,34.4060652591,95.8062345777,27.3526769706,26.0770641881-5.2447830672,50.0447086434-21.3727162761,68.1320221825-40.2810128849-12.6402260054-10.2335499862-28.4759595696-16.8770629515-43.9165920199-21.8945674497-32.5709819106-10.5840903068-61.9730952465-12.7546947001-94.5254603965-.3891084586-8.1675278453,3.1025785526-29.9524961323,14.6049172201-35.3978634215,20.7349987753Z"/>
    </g>
  </g>
</svg>