<?xml version="1.0" encoding="UTF-8"?>
<svg id="uuid-340497e2-a7e7-48d7-ac75-43ff52fa0ae6" data-name="Layer 1" xmlns="http://www.w3.org/2000/svg" viewBox="0 0 1001 1001">
  <defs>
    <style>
      .uuid-2dbd5a40-8617-4a37-94f2-37755e54404b {
        fill: #fff;
      }
    </style>
  </defs>
  <g id="uuid-3b0982ce-dae7-4141-891b-005d47f9788d" data-name="schami">
    <path class="uuid-2dbd5a40-8617-4a37-94f2-37755e54404b" d="M305.6107739522,553.5240955965c.0955661116.148753172,2.1989239061.2110299091,3.2955829407,1.2819078958,7.2996879241,7.1280816197,14.0655513507,14.8256682599,14.0366032988,25.9019480691-.0099416222,3.8039240063-3.1210142669,10.1753028786-2.1198419369,12.5640704536.8784934427,2.0960593776,14.2807939395,14.4854136374,17.6922654543,19.5074530541,47.7500126857,70.292964434,21.2313428179,229.7163663078-31.0267373233,293.3608814336-10.4126928647,12.6814989517-15.7056824976,12.0731130944-26.4260992002.127618306-57.1522645578-63.6833527425-82.4522724593-227.052776982-30.3380807137-298.2316384173,2.4019156025-3.2805961701,14.5899917684-15.7800766206,14.8069093021-16.8816828423.4291291462-2.1793136284-2.480875406-7.8348642011-2.3941786086-11.7177144331.1461847996-6.5471124699,5.116513032-16.9208767013,9.776350519-21.4774346501,4.4021480508-4.3045798804,8.0399047571-1.7756935495,8.9048142285-10.3262847887,2.7966559121-27.6480514232-1.975206867-60.412889159-.3995054875-88.5980559948C136.7499921984,279.8836878382,253.9144274061,14.5867351824,485.2264805444,3.1531248356c247.1012944345-12.2140626847,386.9235906042,264.6372981508,234.3852543381,457.1604801692l.0009409481,92.9444736495c9.3139988998,3.4457537946,16.3369227095,16.6035469629,16.9595181235,26.1539435969.2768671444,4.2470454879-1.7711181582,10.5440810822-1.1358715972,12.9320336639.6009924585,2.259188134,9.3895331821,9.4099050998,11.7073848794,12.2720859671,57.2663461742,70.7148954145,29.0211590751,236.9704594258-27.2560998659,302.8498416961-13.1731413984,15.4207655849-20.2193008925,6.56148436-29.4788478054-6.1011101863-48.8038776804-66.740167869-76.5899121631-220.8751574568-26.521498738-291.2390758057,2.525648299-3.5494336356,15.1781524191-16.6421156379,15.4804224489-17.7814996344.6600380684-2.4879635363-1.6737152363-11.9119510876-1.1374706985-16.9496183155.9704597342-9.1168354244,8.1381468498-19.5947497079,17.2372064662-21.8705840398v-68.9542365468c-49.4804543297,46.8130454088-114.4129909182,74.860319931-183.0007110413,76.9040026883l.2222103457,72.0604012391c8.9411996647,6.4948200243,16.6972089401,16.3811323624,16.7421299574,28.0560881636.0128170066,3.3311352874-2.7853945966,10.0977991681-1.7495393046,12.5786373662.3802519321.9106904462,11.7010027535,11.1117545357,13.9383928776,13.9750005609,53.1547043406,68.0234503059,24.2607852676,232.2601036163-25.4134609542,298.0879778924-16.77244833,22.2267010363-24.9979930575,9.9965141694-36.9205731476-7.6745459407-48.0184811125-71.1706241203-73.9679398322-224.8186416633-17.1627393349-295.7048476719,2.0773139875-2.5922434209,9.1786169891-8.1766648087,9.9455423723-10.0181918878.5986172881-1.4373887867-1.1614274509-12.2122019849-.5843183381-16.4281947099,1.4175743569-10.3558981193,9.4698778556-17.8599934184,16.8718375753-24.2310513798l.254903952-70.7013373821c-68.0787176795-2.522391761-132.7550768176-30.3090039215-183.000320051-75.5778959278v67.6281935363ZM484.6210767773,28.4192476574c-57.0638257986,2.4883047755-111.7075418287,25.1178229278-155.6167494151,60.88165557l-.840841938,2.7351017899,119.3270651952,67.6470735215,37.1305261578-131.2638308813ZM672.9161557192,89.433526227c-8.0708301333-4.1212395775-14.6489688448-10.6261164663-22.1211545385-15.6870234333-39.4642924198-26.7291419992-86.4509690637-43.370771153-134.3394393937-45.3285480038l37.1328739219,129.9520530325c2.6351438105.4114620274,4.4795875745-.9304552113,6.6745883232-1.9447582638,24.3810891167-11.2664258221,53.9502742066-30.3303633719,77.7500656594-44.2449348584,11.1597148109-6.5245382429,22.0705226988-13.5001792896,33.5352016302-19.5062754272l1.3678643976-3.240513046ZM512.2716655512,219.1462529867l22.2039207135-44.1952799035c-12.5503806289-36.5124373673-20.4842996525-75.7523225889-33.3062822091-112.0515159642-.4502960234-1.2747936879-.1529303916-3.0439909198-1.9413978559-2.65534583l-32.8289189178,115.8203074977,22.1856020288,42.6438044081c7.9078917945.7991001705,15.4948602563-.7734923117,23.6870762404.4380297921ZM757.7783862523,268.4241978781c-1.4158490928-58.1577264826-26.518389749-113.4941493679-62.9677268455-157.792760041l-64.2868279275,117.3583468143,127.2545547729,40.4344132267ZM308.2492605924,111.9501655956c-1.482673688-1.3818947713-5.5189993609,3.5163876806-6.5797326473,4.6796193458-7.8257974519,8.5820022036-17.0837612974,22.4955859041-23.1390256441,32.5548025123-22.0305562399,36.5979294265-32.7757188493,76.7844806387-36.5640997934,119.2323072353l128.6205504417-38.4547495526-62.3376923569-118.0119795409ZM396.1843400002,225.5830201988l52.6289068409,21.0425658019,17.0458406688-18.399127513-20.7219452812-40.3190644606-102.3841043876-61.3686802971,53.431302159,99.0443064688ZM657.0116523332,129.2033399384l-100.7161693039,56.4064003299-20.7549674833,40.3805067505c-1.0766059634,4.2892052329,5.5770922081,6.6881015907,8.1260662401,9.2524390626,3.7535062423,3.7761297632,6.5690152774,8.1250275092,10.5598060522,11.5830227839l50.4544883063-20.7868335447,52.3307761885-96.8355353822ZM539.8139796513,281.788702366c0-21.6079694165-17.516720199-39.1246896156-39.1246896156-39.1246896156s-39.1246896156,17.516720199-39.1246896156,39.1246896156,17.516720199,39.1246896155,39.1246896156,39.1246896155,39.1246896156-17.516720199,39.1246896156-39.1246896155ZM438.0563374419,268.575605606l-52.0229698673-19.9716031621c-34.2613145305,11.6411532693-68.9728818181,21.5175131614-103.6795948412,31.7192992966-1.9370741181.5693888634-2.3092502006-.7591700818-1.9432696855,2.6803311537l107.8737433022,31.4843577385,51.2640332194-19.5661573587-1.4919421276-26.346227668ZM720.6630124567,280.3652172117c-1.8428131797-.0329300243-3.8401916355.2413828581-5.637516173-.3213156425-33.689142954-10.5472494436-67.2076258434-21.6658203235-101.0936489542-31.6023468333l-50.9100031227,20.1340548813-1.5175155187,25.6135791975c17.2830563918,7.6021057734,35.3713889219,15.3064425304,53.6970024213,19.3848928794,33.9678506542-11.375451071,69.9845529925-18.1590003325,103.6072816104-30.4262449766,1.8455797676-.673359345,2.266273209.4622163318,1.8543997369-2.7826195057ZM370.5890051822,333.4136775355l-128.619336573-38.463234593c4.6630283899,57.8949299723,25.2168101844,113.1510486523,64.3041025858,156.4427182793l64.3152339872-117.9794836863ZM759.1169806519,296.2849334019l-129.9451798692,37.1230737293,63.6572606527,118.0124261793c1.8694654902.4204790556,2.1761911906-.2870194638,3.3311590741-1.2980866435,4.2913542245-3.7566823067,14.4689423524-18.758115884,18.165310765-24.2678915015,26.4580277918-39.4381133437,40.2035007462-82.2986769403,44.7914493774-129.5695217636ZM342.7530339487,436.8318392771l102.1071165486-58.9935821328,20.8323314858-42.465971261c-5.862345092-6.4853699992-13.0709985076-10.1941538495-16.8666465375-18.6384796698l-51.7762192175,19.9241317141-54.2965822793,100.1739013495ZM658.3376953335,435.4932599641l-55.73284959-100.0636770332-49.7195425056-19.0758209913c-3.0907425135,4.3704458083-6.783200829,8.0078979827-10.5406634819,11.7784404233-2.9483749359,2.9586382763-8.8380775826,4.224583858-6.7762188482,9.2513432596l22.100331194,41.6560879396,100.6689432318,56.453626402ZM501.8521410335,499.1579971315l31.8193807857-111.9333236927-21.1816349352-42.5687581498-23.3073044296-1.5384972965-22.8173439453,46.4176599634c12.6757268228,35.2793278028,21.9414925541,71.7845291839,32.8252404993,107.6718498723.5696820352,1.8784302974-.8397632385,2.3462546411,2.661662025,1.9510693033ZM447.4856502275,405.0058304877l-120.6516644637,66.960083099c32.3844719581,29.3321944721,72.2891459999,50.8614883065,115.3467953632,59.6908952445,14.493231095,2.9719837724,29.1643876014,3.8719487127,43.7586461205,5.9542678219l-38.45377702-132.6052461654ZM674.2476186911,471.3254532353l-120.6551728157-66.3194818955-38.460148075,132.5986635842c59.0518330802-2.7570350881,116.4130438283-25.4358891552,159.1153208907-66.2791816887ZM299.6089470193,581.1020425597c0-3.5632614103-2.888594107-6.4518555173-6.4518555173-6.4518555173s-6.4518555173,2.888594107-6.4518555173,6.4518555173,2.888594107,6.4518555173,6.4518555173,6.4518555173,6.4518555173-2.888594107,6.4518555173-6.4518555173ZM713.6042097579,581.0164211509c0-3.5345030837-2.865280877-6.3997839608-6.3997839608-6.3997839608s-6.3997839608,2.865280877-6.3997839608,6.3997839608,2.865280877,6.3997839608,6.3997839608,6.3997839608,6.3997839608-2.865280877,6.3997839608-6.3997839608ZM305.6107739522,611.8699880592v90.8339462203c0,.8611345084,8.0234969018,11.5129946019,9.5093245035,14.3594496862,4.5541071456,8.7244720883,11.7903800136,20.6245113708,10.3117215001,30.6329675071-.694154531,4.6984581713-16.9379353269,33.1904739064-20.5801534212,37.7894828814-5.0302374985,6.3516535264-10.6743869845,8.1466756217-17.7476373096,3.3416490962-5.9893096287-4.0686799297-24.4876409802-36.4879953634-25.194958211-43.8468711619-.4645278872-4.832913548,1.8994462301-10.1775691924,3.6806146493-14.6696774217,2.2168195913-5.5908208466,16.1523140997-27.2762256422,16.1523140997-28.9330435979v-90.8339462203c-7.4149901855,3.3809920141-13.0215134421,12.5256679634-16.9802765151,19.4859062741-28.800898983,50.637311904-20.5283909299,135.3410803144-2.5288547305,188.98435397,7.5965725099,22.6397510178,18.4315496515,45.181307636,32.1124581214,64.6886951677,18.5797872802-31.9829124348,31.5675112259-66.7379706876,38.7251612056-103.1496178894,10.6183286878-54.0164494147,14.2013388168-123.2640684386-24.4265055676-166.9872625357-.795160502-.9000491102.092796017-2.5249343139-3.0332083244-1.6960319762ZM719.3361932329,610.5439450487v90.8339462203c0,5.0631560468,20.8071228922,28.2204956055,19.9543361996,43.7164391032-.387994948,7.050236412-15.7373822649,34.3745574409-20.6990994912,40.4055291408-4.0864226885,4.967050411-10.1484014824,7.3753665749-16.4711783472,4.6916115723-4.7241290716-2.0051957075-25.5581393472-36.709541376-26.4592685181-42.4818994093-1.5533842041-9.9505044099,4.7798560675-21.6097064811,9.456399734-30.1608564287,1.6038678646-2.9327032065,10.3500362337-13.9399456488,10.3500362337-14.8447809678v-92.1599892308c-13.1958933447,10.0246009411-20.7682834436,25.8818162715-25.5456495554,41.4195224756-12.6671709354,41.1981782069-9.5453094014,94.6825402587-.5629034386,136.5209552223,7.2217959586,33.6378134489,20.1730368658,65.2507372277,36.7336008744,95.2208566946,2.3279306724,1.6077837255,18.4251788242-31.2057407979,19.6849924998-33.9995198561,26.1825624931-58.0627883269,39.5992350453-133.4725519458,20.756505988-195.416285653-4.6947307047-15.4334941457-13.5254374905-34.8562398123-27.197772179-43.7455288835ZM506.7419184718,661.9680923405c0-3.4406490129-2.7891971199-6.2298461328-6.2298461328-6.2298461328s-6.2298461328,2.7891971199-6.2298461328,6.2298461328,2.7891971199,6.2298461328,6.2298461328,6.2298461328,6.2298461328-2.7891971199,6.2298461328-6.2298461328ZM488.6047094033,692.7586117006c-6.9540692212,2.7847069161-13.4105506473,11.6537990486-16.986780135,18.1533596438-34.3913707916,62.5040420858-14.5061502587,187.1195800383,22.5441411304,246.1378625579,1.7869609522,1.1694916953,4.4835609168,9.5885638205,7.0257701393,8.882219682,6.1022986204-1.6955028027,30.761035691-69.3367988613,33.4511961282-79.2853189483,13.6865249578-50.6143301269,19.8627509173-135.0729248049-9.1678885839-181.0279487139-2.9413997249-4.6561872906-7.3359361509-11.2669304856-12.9976644897-12.8601742214v93.4860322413c0,.8183142611,7.3946280703,11.4008087299,8.6476354677,13.8950957111,6.0552374908,12.0537995799,13.4145926641,24.9564754882,11.1594687291,39.0671486132-.8908004193,5.5738814799-20.1878951798,40.5090612513-24.5927732045,43.0274664618-14.2322528,8.1370197785-25.1103429617-14.7892751241-30.3832775602-25.0176029347-8.9179943376-17.2989381516-11.1746753568-22.2090005762-4.3125451507-41.4993627997,2.2336568069-6.2791068651,15.6127175293-26.5326391702,15.6127175293-28.1467020412v-94.8120752518ZM708.7095565951,727.2386534587c-2.9000138958-2.2010895932-9.2926547618,12.5366408563-9.3801547591,15.2933453785-.1888074635,5.9484160523,5.742515862,10.7357195162,6.7623642243,16.5256500109,12.2299061631-10.5376010747,10.0823892981-19.0271775689,2.6177905348-31.8189953894ZM294.9841353154,728.5647123228c-3.008414205-2.2954873634-9.1932453229,12.7125912429-9.1403398637,15.2869151328.0747096092,3.6352908496,6.087376267,9.6195491142,6.5317715112,13.8727063975l2.736427981-.8234854531c8.8381734308-12.2210412243,6.5748467098-16.1450196932-.1278596285-28.3361360772ZM499.2290719012,850.5545288657c12.3096058108-11.6650173399,9.8081239675-23.4396069029,2.6199988426-37.1228196571-12.5483193696,11.1361599858-9.3763870395,23.6890183804-2.6199988426,37.1228196571Z"/>
  </g>
</svg>