          <svg
            width="12"
            height="12"
            viewBox="0 0 10 10"
            fill="none"
            xmlns="http://www.w3.org/2000/svg"
          >
            <path
              d="M2 10V7.875C1.675 7.73333 1.3895 7.54383 1.1435 7.3065C0.897502 7.06917 0.689168 6.80033 0.518502 6.5C0.347835 6.19967 0.218669 5.87883 0.131002 5.5375C0.0433353 5.19617 -0.000331439 4.85033 1.89394e-06 4.5C1.89394e-06 3.18333 0.466669 2.10417 1.4 1.2625C2.33333 0.420833 3.53333 0 5 0C6.46667 0 7.66667 0.420833 8.6 1.2625C9.53333 2.10417 10 3.18333 10 4.5C10 4.85 9.95633 5.19583 9.869 5.5375C9.78167 5.87917 9.6525 6.2 9.4815 6.5C9.3105 6.8 9.10217 7.06883 8.8565 7.3065C8.61083 7.54417 8.32533 7.73367 8 7.875V10H2ZM3 9H3.5V8H4.5V9H5.5V8H6.5V9H7V7.225C7.31667 7.15 7.598 7.025 7.844 6.85C8.09 6.675 8.29833 6.46667 8.469 6.225C8.63967 5.98333 8.77083 5.71667 8.8625 5.425C8.95417 5.13333 9 4.825 9 4.5C9 3.45833 8.63133 2.61467 7.894 1.969C7.15667 1.32333 6.192 1.00033 5 1C3.808 0.999667 2.84333 1.32267 2.106 1.969C1.36867 2.61533 1 3.459 1 4.5C1 4.825 1.04584 5.13333 1.1375 5.425C1.22917 5.71667 1.3605 5.98333 1.5315 6.225C1.7025 6.46667 1.91283 6.675 2.1625 6.85C2.41217 7.025 2.69133 7.15 3 7.225V9ZM4.25 6.5H5.75L5 5L4.25 6.5ZM3.25 5.5C3.525 5.5 3.7605 5.40217 3.9565 5.2065C4.1525 5.01083 4.25033 4.77533 4.25 4.5C4.24967 4.22467 4.15183 3.98933 3.9565 3.794C3.76117 3.59867 3.52567 3.50067 3.25 3.5C2.97433 3.49933 2.739 3.59733 2.544 3.794C2.349 3.99067 2.251 4.226 2.25 4.5C2.249 4.774 2.347 5.0095 2.544 5.2065C2.741 5.4035 2.97633 5.50133 3.25 5.5ZM6.75 5.5C7.025 5.5 7.2605 5.40217 7.4565 5.2065C7.6525 5.01083 7.75033 4.77533 7.75 4.5C7.74967 4.22467 7.65183 3.98933 7.4565 3.794C7.26117 3.59867 7.02567 3.50067 6.75 3.5C6.47433 3.49933 6.239 3.59733 6.044 3.794C5.849 3.99067 5.751 4.226 5.75 4.5C5.749 4.774 5.847 5.0095 6.044 5.2065C6.241 5.4035 6.47633 5.50133 6.75 5.5Z"
              fill="rgba(180, 35, 24, 1)"
            />
          </svg>